<svg width="1280" height="840" viewBox="0 0 1280 840" fill="none" xmlns="http://www.w3.org/2000/svg">
  <defs>
    <linearGradient id="bg" x1="0" y1="0" x2="1280" y2="840" gradientUnits="userSpaceOnUse">
      <stop stop-color="#F4F7FF"/>
      <stop offset="1" stop-color="#EFF6FF"/>
    </linearGradient>
    <linearGradient id="panel" x1="0" y1="0" x2="0" y2="1">
      <stop stop-color="#FFFFFF"/>
      <stop offset="1" stop-color="#F8FBFF"/>
    </linearGradient>
    <filter id="shadow" x="-20%" y="-20%" width="140%" height="140%">
      <feDropShadow dx="0" dy="16" stdDeviation="20" flood-color="#1E293B" flood-opacity="0.12"/>
    </filter>
  </defs>

  <rect width="1280" height="840" rx="28" fill="url(#bg)"/>
  <text x="48" y="60" fill="#0F172A" font-size="30" font-weight="700" font-family="Segoe UI, Arial, sans-serif">Dashboard Preview</text>
  <text x="48" y="92" fill="#64748B" font-size="18" font-family="Segoe UI, Arial, sans-serif">中文优先的网关链路驾驶舱：首页同时呈现业务摘要、实时图和技术明细入口。</text>

  <g filter="url(#shadow)">
    <rect x="40" y="124" width="1200" height="78" rx="22" fill="url(#panel)"/>
    <rect x="64" y="146" width="480" height="34" rx="12" fill="#EEF2FF"/>
    <text x="82" y="168" fill="#475569" font-size="16" font-family="Segoe UI, Arial, sans-serif">网关地址或观察器地址</text>
    <rect x="926" y="144" width="90" height="38" rx="14" fill="#DBEAFE"/>
    <text x="952" y="168" fill="#1D4ED8" font-size="16" font-weight="700" font-family="Segoe UI, Arial, sans-serif">连接</text>
    <rect x="1032" y="144" width="96" height="38" rx="14" fill="#F1F5F9"/>
    <text x="1054" y="168" fill="#334155" font-size="16" font-weight="700" font-family="Segoe UI, Arial, sans-serif">暂停</text>
    <rect x="1144" y="144" width="72" height="38" rx="14" fill="#FEE2E2"/>
    <text x="1165" y="168" fill="#BE123C" font-size="16" font-weight="700" font-family="Segoe UI, Arial, sans-serif">清空</text>
  </g>

  <g filter="url(#shadow)">
    <rect x="40" y="226" width="1200" height="418" rx="26" fill="url(#panel)"/>
    <text x="68" y="270" fill="#0F172A" font-size="24" font-weight="700" font-family="Segoe UI, Arial, sans-serif">实时链路图</text>
    <text x="68" y="300" fill="#64748B" font-size="16" font-family="Segoe UI, Arial, sans-serif">骨架常显，真实消息流转到来时点亮节点与链路。</text>

    <text x="90" y="334" fill="#64748B" font-size="13" font-family="Segoe UI, Arial, sans-serif">入口/客户端</text>
    <text x="212" y="334" fill="#64748B" font-size="13" font-family="Segoe UI, Arial, sans-serif">网关</text>
    <text x="380" y="334" fill="#64748B" font-size="13" font-family="Segoe UI, Arial, sans-serif">RPC</text>
    <text x="554" y="334" fill="#64748B" font-size="13" font-family="Segoe UI, Arial, sans-serif">智能体</text>
    <text x="682" y="334" fill="#64748B" font-size="13" font-family="Segoe UI, Arial, sans-serif">工具</text>
    <text x="860" y="334" fill="#64748B" font-size="13" font-family="Segoe UI, Arial, sans-serif">会话</text>
    <text x="1078" y="334" fill="#64748B" font-size="13" font-family="Segoe UI, Arial, sans-serif">渠道</text>

    <g opacity="0.28">
      <line x1="100" y1="350" x2="100" y2="604" stroke="#CBD5E1"/>
      <line x1="220" y1="350" x2="220" y2="604" stroke="#CBD5E1"/>
      <line x1="390" y1="350" x2="390" y2="604" stroke="#CBD5E1"/>
      <line x1="560" y1="350" x2="560" y2="604" stroke="#CBD5E1"/>
      <line x1="690" y1="350" x2="690" y2="604" stroke="#CBD5E1"/>
      <line x1="870" y1="350" x2="870" y2="604" stroke="#CBD5E1"/>
      <line x1="1090" y1="350" x2="1090" y2="604" stroke="#CBD5E1"/>
    </g>

    <circle cx="100" cy="470" r="20" fill="#F8FAFC" stroke="#CBD5E1" stroke-width="3"/>
    <text x="75" y="475" fill="#64748B" font-size="14" font-weight="700" font-family="Segoe UI, Arial, sans-serif">入口</text>

    <circle cx="220" cy="470" r="28" fill="#EDE9FE" stroke="#7C3AED" stroke-width="4"/>
    <text x="191" y="475" fill="#3B0764" font-size="16" font-weight="700" font-family="Segoe UI, Arial, sans-serif">网关</text>

    <circle cx="390" cy="390" r="22" fill="#F3E8FF" stroke="#8B5CF6" stroke-width="3"/>
    <text x="370" y="395" fill="#581C87" font-size="14" font-weight="700" font-family="Segoe UI, Arial, sans-serif">health</text>

    <circle cx="560" cy="430" r="30" fill="#DBEAFE" stroke="#2563EB" stroke-width="4"/>
    <text x="533" y="435" fill="#1E3A8A" font-size="15" font-weight="700" font-family="Segoe UI, Arial, sans-serif">main</text>

    <circle cx="690" cy="540" r="22" fill="#FFEDD5" stroke="#D97706" stroke-width="3"/>
    <text x="670" y="545" fill="#9A3412" font-size="14" font-weight="700" font-family="Segoe UI, Arial, sans-serif">工具</text>

    <circle cx="870" cy="400" r="24" fill="#DBEAFE" stroke="#2563EB" stroke-width="3"/>
    <text x="844" y="405" fill="#1E3A8A" font-size="14" font-weight="700" font-family="Segoe UI, Arial, sans-serif">会话 A</text>

    <circle cx="870" cy="520" r="24" fill="#DBEAFE" stroke="#2563EB" stroke-width="3"/>
    <text x="844" y="525" fill="#1E3A8A" font-size="14" font-weight="700" font-family="Segoe UI, Arial, sans-serif">会话 B</text>

    <circle cx="1090" cy="400" r="22" fill="#DCFCE7" stroke="#16A34A" stroke-width="3"/>
    <text x="1058" y="405" fill="#166534" font-size="14" font-weight="700" font-family="Segoe UI, Arial, sans-serif">企业微信</text>

    <circle cx="1090" cy="540" r="22" fill="#DCFCE7" stroke="#16A34A" stroke-width="3"/>
    <text x="1067" y="545" fill="#166534" font-size="14" font-weight="700" font-family="Segoe UI, Arial, sans-serif">飞书</text>

    <line x1="128" y1="470" x2="188" y2="470" stroke="#C4B5FD" stroke-width="3" stroke-dasharray="8 7"/>
    <line x1="248" y1="463" x2="370" y2="401" stroke="#7C3AED" stroke-width="3" stroke-dasharray="8 7"/>
    <line x1="248" y1="470" x2="526" y2="434" stroke="#0F766E" stroke-width="4" stroke-dasharray="9 8"/>
    <line x1="590" y1="426" x2="842" y2="404" stroke="#0F766E" stroke-width="4" stroke-dasharray="9 8"/>
    <line x1="590" y1="438" x2="844" y2="515" stroke="#0F766E" stroke-width="4" stroke-dasharray="9 8"/>
    <line x1="708" y1="533" x2="842" y2="526" stroke="#D97706" stroke-width="3" stroke-dasharray="8 7"/>
    <line x1="894" y1="397" x2="1064" y2="404" stroke="#0F766E" stroke-width="4" stroke-dasharray="9 8"/>
    <line x1="894" y1="524" x2="1064" y2="542" stroke="#0F766E" stroke-width="4" stroke-dasharray="9 8"/>

    <circle cx="435" cy="446" r="6" fill="#0F766E"/>
    <circle cx="732" cy="417" r="6" fill="#0F766E"/>
    <circle cx="745" cy="486" r="6" fill="#0F766E"/>
    <circle cx="975" cy="399" r="6" fill="#0F766E"/>
    <circle cx="986" cy="532" r="6" fill="#0F766E"/>
  </g>

  <g filter="url(#shadow)">
    <rect x="40" y="670" width="382" height="130" rx="24" fill="url(#panel)"/>
    <text x="66" y="712" fill="#0F172A" font-size="20" font-weight="700" font-family="Segoe UI, Arial, sans-serif">最新入口</text>
    <text x="66" y="746" fill="#334155" font-size="18" font-family="Segoe UI, Arial, sans-serif">企业微信群 · 产品答疑</text>
    <text x="66" y="776" fill="#64748B" font-size="16" font-family="Segoe UI, Arial, sans-serif">“今天的告警为什么突然增多？”</text>
  </g>

  <g filter="url(#shadow)">
    <rect x="448" y="670" width="382" height="130" rx="24" fill="url(#panel)"/>
    <text x="474" y="712" fill="#0F172A" font-size="20" font-weight="700" font-family="Segoe UI, Arial, sans-serif">最新出口</text>
    <text x="474" y="746" fill="#334155" font-size="18" font-family="Segoe UI, Arial, sans-serif">主智能体 · 已回写企业微信</text>
    <text x="474" y="776" fill="#64748B" font-size="16" font-family="Segoe UI, Arial, sans-serif">“主要来自网关健康检查失败与重试抖动。”</text>
  </g>

  <g filter="url(#shadow)">
    <rect x="856" y="670" width="384" height="130" rx="24" fill="url(#panel)"/>
    <text x="882" y="712" fill="#0F172A" font-size="20" font-weight="700" font-family="Segoe UI, Arial, sans-serif">活跃会话</text>
    <text x="882" y="746" fill="#334155" font-size="18" font-family="Segoe UI, Arial, sans-serif">企业微信产品群 · 群聊</text>
    <text x="882" y="776" fill="#64748B" font-size="16" font-family="Segoe UI, Arial, sans-serif">飞书运维群 · 群聊 · 最近 5 秒 2 条消息</text>
  </g>
</svg>
